<?xml version="1.0" encoding="utf-8"?>
<!-- Generator: Adobe Illustrator 23.0.2, SVG Export Plug-In . SVG Version: 6.00 Build 0)  -->
<svg version="1.1" id="Layer_1" xmlns="http://www.w3.org/2000/svg" xmlns:xlink="http://www.w3.org/1999/xlink" x="0px" y="0px"
	 viewBox="0 0 595.3 283.5" style="enable-background:new 0 0 595.3 283.5;" xml:space="preserve">
<style type="text/css">
	.st0{fill:url(#SVGID_1_);}
	.st1{fill:url(#SVGID_2_);}
	.st2{fill:url(#SVGID_3_);}
	.st3{fill:url(#SVGID_4_);}
	.st4{fill:url(#SVGID_5_);}
	.st5{fill:url(#SVGID_6_);}
	.st6{fill:url(#SVGID_7_);}
	.st7{fill:url(#SVGID_8_);}
	.st8{fill:url(#SVGID_9_);}
	.st9{fill:url(#SVGID_10_);}
	.st10{fill:url(#SVGID_11_);}
	.st11{fill:url(#SVGID_12_);}
	.st12{fill:url(#SVGID_13_);}
	.st13{fill:url(#SVGID_14_);}
</style>
<g>
	<linearGradient id="SVGID_1_" gradientUnits="userSpaceOnUse" x1="248.5293" y1="88.9373" x2="259.0099" y2="88.9373">
		<stop  offset="0" style="stop-color:#FFF33B"/>
		<stop  offset="0.4264" style="stop-color:#EAB80E"/>
		<stop  offset="1" style="stop-color:#FFE730"/>
	</linearGradient>
	<path class="st0" d="M248.5,50.6v76.7H259V50.6H248.5z"/>
	<linearGradient id="SVGID_2_" gradientUnits="userSpaceOnUse" x1="269.4904" y1="88.9372" x2="327.0316" y2="88.9372">
		<stop  offset="0" style="stop-color:#FFF33B"/>
		<stop  offset="0.4264" style="stop-color:#EAB80E"/>
		<stop  offset="1" style="stop-color:#FFE730"/>
	</linearGradient>
	<path class="st1" d="M301.5,91.8c8.6-2.2,16-7.4,16-19.7c0-21.8-24.4-21.5-36.5-21.5h-11.5v76.7H281V92.8c2.5,0,5.4,0,8.6-0.1
		l24.5,34.6H327L301.5,91.8z M299,86.4c-1.7,1-3.7,1.7-5.7,2c-1.4,0.2-2.7,0.3-4.1,0.3H281V54.2h8.3c2.3,0,15.2,1.1,15.7,17.8
		c0,1.8-0.1,3.7-0.4,5.4c-0.3,1.4-0.7,2.7-1.4,4c-0.4,1-1.1,2.1-1.9,2.9C300.6,85.2,299.9,85.8,299,86.4z"/>
	<linearGradient id="SVGID_3_" gradientUnits="userSpaceOnUse" x1="322.8394" y1="88.9373" x2="385.1985" y2="88.9373">
		<stop  offset="0" style="stop-color:#FFF33B"/>
		<stop  offset="0.4264" style="stop-color:#EAB80E"/>
		<stop  offset="1" style="stop-color:#FFE730"/>
	</linearGradient>
	<path class="st2" d="M322.8,50.6v4.7h25.5v72h11.5v-72h25.4v-4.7H322.8z"/>
	<linearGradient id="SVGID_4_" gradientUnits="userSpaceOnUse" x1="393.5684" y1="89.73" x2="453.424" y2="89.73">
		<stop  offset="0" style="stop-color:#FFF33B"/>
		<stop  offset="0.4264" style="stop-color:#EAB80E"/>
		<stop  offset="1" style="stop-color:#FFE730"/>
	</linearGradient>
	<path class="st3" d="M448.7,50.6v52c0,19.3-18,21.7-24.1,21.7c0,0-19.5,1.4-19.5-21.7v-52h-11.5v52c0,27.8,30,26.3,30,26.3
		c29,0,29.9-21.6,29.9-26.3v-52H448.7z"/>
	<linearGradient id="SVGID_5_" gradientUnits="userSpaceOnUse" x1="459.7122" y1="88.9373" x2="529.306" y2="88.9373">
		<stop  offset="0" style="stop-color:#FFF33B"/>
		<stop  offset="0.4264" style="stop-color:#EAB80E"/>
		<stop  offset="1" style="stop-color:#FFE730"/>
	</linearGradient>
	<path class="st4" d="M494.1,50.6l-34.4,76.7h5.1l6.5-14.5H510l6.6,14.5h12.7L494.1,50.6z M473.1,108.9l17.3-38.6l17.7,38.6H473.1z"
		/>
	<linearGradient id="SVGID_6_" gradientUnits="userSpaceOnUse" x1="535.5798" y1="88.9373" x2="584.8529" y2="88.9373">
		<stop  offset="0" style="stop-color:#FFF33B"/>
		<stop  offset="0.4264" style="stop-color:#EAB80E"/>
		<stop  offset="1" style="stop-color:#FFE730"/>
	</linearGradient>
	<path class="st5" d="M546.1,122.6v-72h-10.5v76.7h49.3v-4.7H546.1z"/>
</g>
<g>
	<g>
		<linearGradient id="SVGID_7_" gradientUnits="userSpaceOnUse" x1="249.9413" y1="182.7818" x2="288.3845" y2="182.7818">
			<stop  offset="0" style="stop-color:#FFF33B"/>
			<stop  offset="0.4264" style="stop-color:#EAB80E"/>
			<stop  offset="1" style="stop-color:#FFE730"/>
		</linearGradient>
		<path class="st6" d="M288.4,155.4v-3.2h-38.4v61h38.4v-3.2h-29.3v-26.8h24.4v-3.7h-24.4v-24.2H288.4z"/>
		<linearGradient id="SVGID_8_" gradientUnits="userSpaceOnUse" x1="295.0513" y1="182.6945" x2="335.314" y2="182.6945">
			<stop  offset="0" style="stop-color:#FFF33B"/>
			<stop  offset="0.4264" style="stop-color:#EAB80E"/>
			<stop  offset="1" style="stop-color:#FFE730"/>
		</linearGradient>
		<path class="st7" d="M317.3,177.9c-7.7-3.9-15.1-7.8-15.1-14c0-5.3,5.5-9.4,10.7-9.4c10.5,0,13.8,6.9,15.1,11.5h3
			c-1.7-8.7-6.5-14.9-18.2-14.9c-4.7,0-17.8,2.7-17.8,15.9c0,10.4,10.8,15.8,17.1,19c10,5.2,15.3,8.7,15.3,15.1
			c0,3-2.3,9.8-12.1,9.8c-5.5,0-15-2.5-16.8-13.9h-2.8c1.7,12.5,9.1,17.4,20.5,17.4c14.4,0,19.1-10.5,19.1-16.8
			C335.3,190.3,331.8,185.1,317.3,177.9z"/>
		<linearGradient id="SVGID_9_" gradientUnits="userSpaceOnUse" x1="341.1511" y1="183.0292" x2="395.5191" y2="183.0292">
			<stop  offset="0" style="stop-color:#FFF33B"/>
			<stop  offset="0.4264" style="stop-color:#EAB80E"/>
			<stop  offset="1" style="stop-color:#FFE730"/>
		</linearGradient>
		<path class="st8" d="M351.7,183c0-24.7,22.8-39.9,41.9-16.9l2-2.1c-0.7-1.2-7.3-12.8-24.9-12.8c-18.6,0-29.4,14.3-29.4,31.8
			c0,17.6,10.8,31.8,29.4,31.8c17.4,0,24.1-11.2,24.8-12.7l-2.1-2C374.3,223,351.7,205.7,351.7,183z"/>
		<linearGradient id="SVGID_10_" gradientUnits="userSpaceOnUse" x1="399.6966" y1="182.7818" x2="455.0542" y2="182.7818">
			<stop  offset="0" style="stop-color:#FFF33B"/>
			<stop  offset="0.4264" style="stop-color:#EAB80E"/>
			<stop  offset="1" style="stop-color:#FFE730"/>
		</linearGradient>
		<path class="st9" d="M427,152.3l-27.3,61h4.1l5.2-11.5h30.8l5.3,11.5h10.1L427,152.3z M410.4,198.6l13.8-30.7l14.1,30.7H410.4z"/>
		<linearGradient id="SVGID_11_" gradientUnits="userSpaceOnUse" x1="460.0615" y1="182.7817" x2="498.2429" y2="182.7817">
			<stop  offset="0" style="stop-color:#FFF33B"/>
			<stop  offset="0.4264" style="stop-color:#EAB80E"/>
			<stop  offset="1" style="stop-color:#FFE730"/>
		</linearGradient>
		<path class="st10" d="M469.2,152.3h-9.2v61h9.2v-27.4c9.6,0,29,1.2,29-16.4C498.2,152,478.8,152.3,469.2,152.3z M475.7,182.6h-6.5
			v-27.4h6.5c1.8,0,12.2,0.8,12.6,14.3C488.7,182.4,479.1,182.6,475.7,182.6z"/>
		<linearGradient id="SVGID_12_" gradientUnits="userSpaceOnUse" x1="504.9096" y1="182.7818" x2="543.3528" y2="182.7818">
			<stop  offset="0" style="stop-color:#FFF33B"/>
			<stop  offset="0.4264" style="stop-color:#EAB80E"/>
			<stop  offset="1" style="stop-color:#FFE730"/>
		</linearGradient>
		<path class="st11" d="M543.4,155.4v-3.2h-38.4v61h38.4v-3.2h-29.3v-26.8h24.4v-3.7h-24.4v-24.2H543.4z"/>
	</g>
</g>
<g>
	<linearGradient id="SVGID_13_" gradientUnits="userSpaceOnUse" x1="202.8795" y1="143.7472" x2="55.3983" y2="117.4113">
		<stop  offset="0" style="stop-color:#FFF33B"/>
		<stop  offset="0.4264" style="stop-color:#EAB80E"/>
		<stop  offset="1" style="stop-color:#FFE730"/>
	</linearGradient>
	<path class="st12" d="M222.5,78.3c-0.2-1.2-0.5-2.2-1-3.3c-1-2.6-2.7-4.9-4.9-6.9c-0.7-0.7-0.7-0.8-0.2-1.4
		c1.5-1.6,2.8-3.3,3.5-5.4c1.6-4.3,1.4-8.4-1.4-12.2c-1.9-2.6-4.5-4.1-7.8-4.2c-0.4,0-0.8,0.1-1.3-0.2c0.3-0.7,0.6-1.5,0.9-2.2
		c0.5-1.2,0.6-2.4,0.3-3.7c-0.5-2.3-2.6-3.3-4.7-2.3c-1.2,0.6-2,1.4-2.6,2.5c-0.2,0.4-0.4,0.8-0.6,1.1c-0.2,0.3-0.2,0.8-0.7,0.9
		c-0.5-0.1-0.6-0.4-0.8-0.7c-2.5-2.9-5.7-4-9.3-3.6c-2.4,0.3-4.6,1.3-6.4,2.8c-2.3,2-3.7,4.5-4.5,7.4c-0.3,1-0.5,2.1-0.7,3.2
		c-0.9-0.1-1.7-0.3-2.6-0.3c-4-0.4-7.6,0.5-10.9,2.4c-3.2,1.8-4.9,4.6-6.2,7.9c-0.1,0.2-0.1,0.3-0.2,0.5c-1.2,3.5-1.2,6.9,0.9,10.1
		c0.1,0.2,0.1,0.3-0.2,0.4c-0.3,0-0.9,0-1.4,0.1c-2.5,0.2-4.6,1.2-6.2,3c-3.3,3.8-4.2,8-2,12.8c1,2.1,2.2,4,3.7,5.7
		c1.6,1.9,3.4,3.8,5,5.7c0.9,1,1.8,2.1,2.6,3.2c1.3,2,1.9,4.1,1.5,6.5c-0.2,1.2-0.8,2.2-1.9,2.8c-1,0.6-2.4,0.3-3.3-0.6
		c-0.3-0.3-0.5-0.7-0.5-1.1c0-0.5-0.1-1.2,0.5-1.5c0.1,0.1,0.3,0.2,0.4,0.3c1.5,1,2.5,0.8,3.2-0.7c0.3-0.7,0.5-1.4,0.4-2.2
		c-0.2-1.9-1.4-3.2-3.1-4c-1.1-0.5-2.2-0.5-3.2,0.1c-0.6,0.4-1.2,0.8-1.8,1.2c-0.7-0.3-0.7-1-1.1-1.4c-0.9-0.7-1.7-0.7-2.5,0
		c-0.9,0.8-1.4,1.9-1.6,3c-0.6,2.9-0.1,5.7,1.4,8.3c0.3,0.5,0.7,0.9,1,1.5c0.2,0.3,0.2,0.6-0.2,0.8c-0.9,0.3-1.3,1-1.4,1.9
		c-0.1,1,0.5,1.8,1.3,2.3c0.4,0.2,0.7,0.5,0.9,0.9c0.7,2.3,2.2,4,3.9,5.5c0.4,0.3,0.6,0.7,0.3,1.1c-1,1.4-0.4,2.5,0.7,3.6
		c0.3,0.3,0.8,0.4,0.7,1.1c-3,6.2-6.6,12.2-11.1,17.6c-2.9,3.4-5.3,7.3-7,11.4c-0.8,1.9-1.4,3.9-1.6,6c-0.2,1.7-0.1,3.3,0.6,4.9
		c0.2,0.4,0.5,0.7,0.2,1.2c-0.4,0.1-0.8,0.1-1.2,0.3c-1.2,0.4-2.2,1-3.1,1.7L88.7,72.5C82.5,59.4,69.4,51,55.2,51H18.1v1.8
		c20.4,2.5,29.5,17.5,37.1,33.5l71,152.1l6.9-15.7c0.3-0.1,0.5-0.6,0.9-1.4c1.2-2.5,2.4-4.9,3.6-7.4c0.6-1.3,0.7-1.3,2.1-0.6
		c0.2,0.1,0.5,0.2,0.7,0.3c1.1,0.6,1.2,0.7,0.7,1.7c-1.1,2.4-2.3,4.8-3.5,7.2c-0.2,0.5-0.5,1.1-0.7,1.6c-0.1,0.3,0,0.7,0.3,0.9
		c0.4,0.2,0.8,0.4,1.1,0.6c7,3.4,14,6.8,21,10.2c0.4,0.2,0.8,0.4,1.2,0.5c0.5,0.2,0.9,0.1,1.1-0.3c0.8-1.6,1.6-3.3,2.4-4.9
		c0.3-0.5,0.2-1-0.4-1.3c-0.6-0.3-1.2-0.6-1.8-0.9c-1.4-0.7-2.8-1.3-4.1-2c-0.5-0.3-0.8-0.6-0.5-1.2c1.3-2.8,0.9-2.6,3.6-1.4
		c0.3,0.1,0.6,0.3,0.9,0.4c1.5,0.6,2.7,1.7,4.4,1.8c1-1.3,1.5-2.8,2.2-4.2c0.5-0.9,0.4-1.1-0.6-1.6c-3.1-1.5-6.1-3-9.2-4.5
		c-1.2-0.6-2.3-1.5-3.7-1.5c-0.9,0.9-1.2,2.2-1.8,3.2c-0.7,1.3-1.3,2.7-2,4c-0.3,0.7-0.7,0.8-1.4,0.4c-0.6-0.2-1.1-0.5-1.6-0.8
		c-0.4-0.2-0.6-0.6-0.4-1c0.2-0.5,0.5-1.1,0.7-1.6c0.9-1.8,1.8-3.6,2.6-5.4c0.4-0.8,0.3-1-0.5-1.4c-0.3-0.2-0.6-0.3-0.9-0.5
		c-2-1-4-1.9-6-2.9c-0.5-0.3-0.8-0.6-0.5-1.2c0.4-0.8,0.8-1.6,1.1-2.3c0.8-0.2,1.3,0.3,1.8,0.5c2.1,1,4.2,2,6.2,3
		c0.5,0.3,1,0.2,1.2-0.4c0.5-1.1,1-2.1,1.5-3.2c0.6-1.3,1.2-2.5,1.8-3.8c0.3-0.6,0.7-0.7,1.2-0.4c0.1,0,0.1,0.1,0.2,0.1
		c0.5,0.2,0.9,0.4,1.4,0.7c0.8,0.4,0.9,0.6,0.5,1.4c-1.1,2.3-2.2,4.5-3.2,6.8c-0.4,0.8-0.3,1,0.5,1.4c4.1,2,8.2,4,12.2,5.9
		c0.5,0.3,0.9,0.3,1.2-0.3c0.6-1.4,1.3-2.7,1.9-4.1c0.2-0.4,0.1-0.8-0.3-1c-1.5-0.8-3.1-1.5-4.6-2.3c-2.6-1.3-2.5-1-1.2-3.6
		c0.3-0.7,0.6-0.8,1.4-0.4c1.7,0.8,3.4,1.6,5.1,2.4c0.4,0.2,0.8,0.4,1.2,0.5c0.2,0,0.6-0.1,0.6-0.2c0.9-1.8,1.8-3.6,2.6-5.4
		c0.1-0.2,0-0.5-0.2-0.6c-0.3-0.2-0.6-0.4-0.9-0.5c-7.4-3.6-14.8-7.1-22.1-10.7c-0.4-0.2-0.7-0.5-1.4-0.1c-0.1,0.3-0.4,0.8-0.6,1.3
		c-1,2.1-2,4.2-3.1,6.3c-1.2,2.4-1.5,2.5-3.9,0.9c-0.3-0.2-0.5-0.5-0.3-0.8c0.2-0.5,0.5-1.1,0.7-1.6c1.1-2.4,2.3-4.8,3.5-7.2
		c0.5-1,0.4-1.1-0.5-1.6c-1.1-0.6-2.3-1.1-3.4-1.7c-0.7-0.4-1.5-0.8-2.2-1.1c4.1-3.8,4.6-6,2.6-10.8c3.3-1,5-2.2,7-4.8
		c2.8-3.8,4.6-8.1,5.8-12.6c0.8-2.8,1.4-5.7,2.1-8.5c1.2-4.6,3.2-8.9,5.1-13.3c0.5-1.1,0.5-1.1,1.9-1c1.3,0.1,2.5,0.1,2.9-1.3
		c0.3-0.9,0.8-0.9,1.6-0.7c1.6,0.3,3.2,0.4,4.8,0.1c1.2-0.3,2.3-0.7,3.7-0.3c1.3,0.4,2.3-0.6,2.4-1.9c0-0.3,0-0.5-0.1-0.8
		c-0.2-0.5,0-0.8,0.5-0.9c0.6-0.1,1.2,0,1.8-0.1c3.2-0.5,5.7-2,7.6-4.5c0.6-0.8,1-1.7,1-2.8c0-0.9-0.4-1.5-1.4-1.8
		c-0.7-0.2-1.3,0.2-2-0.1c0-0.8-0.1-1.5-0.2-2.3c-0.1-0.8-0.4-1.5-1.1-2c-1.3-0.9-2.7-1.4-4.3-1.1c-1.6,0.3-2.7,1.3-3.2,2.8
		c-0.4,1.1,0.1,1.9,1.2,2.4c0.3,0.1,1-0.2,0.9,0.5c0,0.3-0.3,0.6-0.5,0.8c-1.4,1.1-3.6,0.2-4-1.6c-0.3-1.2,0.1-2.3,0.9-3.2
		c0.8-1,1.9-1.6,3.1-2.1c1.7-0.7,3.6-0.9,5.5-0.8c2.6,0.1,5.2,0.3,7.9,0.5c1.2,0.1,2.3,0.1,3.5,0c1.3-0.1,2.6-0.2,3.9-0.4
		c2.9-0.5,5.2-1.7,6.9-3.6c1.1-1.2,1.9-2.7,2.4-4.5c0.9-2.9,0.7-5.8-1.1-8.4c-0.3-0.4-0.6-0.8-0.9-1.3c3.1-0.6,4.1-0.9,5.6-2.2
		c2.1-1.8,3.8-3.8,4.8-6.1C222.7,84.5,223.1,81.7,222.5,78.3z M213.5,51.6c0.7,1.4,0.8,2.9,0.4,4.8c-0.6-0.8-1.1-1.5-1.6-2
		c-0.5-0.6-1.1-0.9-1.6-1.1c-0.9-0.3-1.9,0-2.8,0.9c-0.4,0.4-0.7,0.9-1.2,1.4c-0.9-0.9-0.9-2-0.7-3c0.1-0.3,0.2-0.7,0.3-1
		c0.3-0.8,0.8-1.5,1.5-1.9C209.9,48.6,212.5,49.5,213.5,51.6z M206.2,39.8c0.4-0.3,0.9-0.4,1.4-0.1c0.4,0.2,0.5,0.6,0.6,1.1
		c0.1,0.6-0.2,1.1-0.5,1.9c-0.2,0.3-0.6,0.8-1,1.1c-0.3,0.3-0.8,0.4-1.2,0.2c-0.5-0.2-0.8-0.6-0.8-1.2
		C204.7,41.6,205.2,40.6,206.2,39.8z M200,64.1c0.6-1.6,1.7-3.7,3.1-6c1.8,2.1,4,3,6.7,3.1c-1.9,2.5-4.9,3.9-9.8,4.8
		c-0.2,0-0.4,0.1-0.6,0.1C199.4,65.7,199.6,65,200,64.1z M193.6,42.5c2.2-0.8,4.1-0.1,5.2,1.9c0.9,1.5,0.4,3.6-1.2,4.9
		c-0.6,0.5-1.2,0.8-2.1,0.8c-0.3-0.7,0.1-1.3,0.2-1.9c0.3-1.4-1-3.3-2.7-3.3c-0.8,0-1.6,0-2.7,0C191.3,43.7,192.4,42.9,193.6,42.5z
		 M189,51.5c3.7,2.8,2.6,2.3,6.5,3.3c-0.4,1.7-2,5-3.6,7.7c-1.3-1.7-2.5-4.7-3-7.3C188.7,53.9,188.5,52.7,189,51.5z M187,91.9
		c3.4-1.9,5.9-4.6,6.9-8.4c-0.1-1.7-0.2-3.4-0.8-5c-0.1-0.1-0.2-0.2-0.3-0.4c-1.1-2.2-2.7-3.5-5.3-3.3c-1.8,0.3-3.5,1-5.1,2
		c-3.3,3.2-3.9,7.1-3.3,11.5c0.3,2.1,0.3,2.2-1.6,2.7c-1.3,0.3-2.6,0.6-4,0.8c-0.6,0.1-0.9-0.2-0.9-0.9c0.3-4.4,1.7-8.3,5-11.4
		c1.4-1.3,2.9-2.5,4.6-3.4c1.5-1,3.1-1.8,4.9-2.2c5.4-2,4.1-2.2,6.1,2.7c0.2,0.5,0.3,1.1,0.4,1.7c0.6,1.6,1,3.2,1,4.9
		c0.9,6.1-1.1,11.1-5.5,15.3c-0.7,0.7-1.1,0.7-1.5-0.1c-0.6-1.1-1.2-2.2-1.7-3.4C185,92.9,185.1,92.9,187,91.9z M184.4,87.5
		c-0.6-1.4-0.6-2.7-0.5-4c0.1-1.2,0.6-2.3,1.4-3.1c0.8-0.7,1.7-0.8,2.6-0.5c0.9,0.3,1.6,1.5,1.5,2.4c-0.2,1.2-0.7,2.2-1.6,3.1
		C186.8,86.3,185.6,87,184.4,87.5z M161.7,88.1c-0.2-0.2-0.4-0.6-0.4-0.9c-0.5-2-0.1-3.8,1.5-5.2c1.1-1,2.4-0.7,3,0.7
		c0.2,0.5,0.3,1,0.4,1.4c0.2,0.8,0.6,1.7,1.3,2.1c0.9,0.5,0.9,1.1,0.8,1.8c-0.2,1-0.3,1.9-0.5,3C165.3,90.9,163.4,89.6,161.7,88.1z
		 M166,118.1c-0.1,0.5-0.3,0.9-0.6,1.4c-0.3,0.5-0.7,0.6-1.3,0.4c-0.8-0.4-1.5-0.7-2.7-1.3c1.9-0.5,3.3-1,4.6-1.8
		C166.4,117.2,166.1,117.6,166,118.1z M168.2,99.4c-0.1,0-0.1-0.1-0.2-0.1c-0.2-0.3-0.4-0.7-0.6-1c-0.7-1.2-1.6-2.2-2.1-3.5
		c2.5,0.6,2.5,0.6,2.8,3.2c0.3,0.3,0.3,0.7,0.3,1.1C168.5,99.3,168.4,99.4,168.2,99.4z M170.6,77.6c-0.4-0.6-0.7-1.3-1.1-2
		c1.3-0.2,2.6-0.4,3.7-1c2.1-1.3,3.2-3.3,3.7-5.7c0.3-1.5-0.2-2.8-1.6-3.7c-1.4-0.9-2.7-0.9-4-0.1c-0.6,0.3-1,0.9-1.5,1.3
		c-0.6,0.6-0.8,0.6-1.4,0.1c-0.8-0.8-1.2-1.7-1.2-2.7c-0.1-2.2,0.9-3.9,2.6-5.5c0.2,0.9,0.3,1.5,0.5,2.2c0.3,0.8,0.7,1.5,1.4,2.1
		c1.5,1.2,3.4,1.2,4.8-0.1c1.6-1.4,1-3.6-1-4.3c-0.7-0.2-1.4,0.2-2-0.1c0.2-1.7,0.3-1.8,1.6-1.9c2.8,0,5.1,1.1,7.2,2.9
		c2.5,2,4.8,5,7,9c-3.7,1-7.1,2.1-10.2,4.1c-3,1.9-5.4,4.4-7.4,7.3C170.9,79,171,78.2,170.6,77.6z M172.9,124
		c-0.3-0.1-0.6-0.3-0.9-0.4c-1.3-0.6-1.5-0.9-0.7-2.3c0.3-0.6,0.8-1,1.4-1.7c0.3,1.8,0.6,3.3,1.5,4.6
		C173.5,124.6,173.2,124.2,172.9,124z M175.5,105.8c-0.6-1-0.7-2.1-1-3.1c-0.6-2-1-4.1-1.5-6.1c-0.1-0.7,0-0.9,0.8-0.9
		c2.1-0.2,4.1-0.7,6.1-1.4c1-0.4,1.4-0.2,1.7,0.8c0.7,2.2,1.7,4.4,3.1,6.4C181.7,103.4,178.6,104.4,175.5,105.8z M185.8,107.3
		c-0.2,0.2-0.4,0.2-0.7,0.2c-0.1,0-0.2-0.1-0.2-0.1c0-0.1,0-0.3,0-0.4c0.3-0.3,0.6-0.5,1.1-0.5c0.1-0.1,0.1-0.1,0.2-0.2
		c2.3-1.3,1.6-1.6,4.1,0.4C188.8,107.2,187.3,107.2,185.8,107.3z M200,104.7c-0.5,0.4-1.1,0.8-1.7,0.9c-0.2,0-0.3,0.1-0.5,0
		c-2.3-0.5-4.4-1.1-6.2-3c0.6-0.6,1.2-1,1.6-1.6c0.7-1.1,1.6-1.5,2.9-1c0.8,0.2,1.5-0.1,2.2-0.4c0.5-0.2,1.1-0.5,1.6-0.6
		c1-0.2,1.9,0.5,2,1.5C202.1,102,201.2,103.7,200,104.7z M213.9,85.9c-1,0.8-2,1.2-3.2,1.1c-0.3,0-0.7-0.1-1-0.2
		c0.1-0.9,0.3-1.7,0.2-2.5c0-1.6-0.8-2.7-2.3-3.4c-1.7-0.8-3.1-0.4-4.3,1c-2.3,2.6-2.6,5.9-1,9.1c0.1,0.2,0.2,0.5,0.4,0.8
		c-1,0.2-1.9,0.3-2.8,0.5c-0.5,0.1-1.1,0.2-1.6,0.3c0.6-2.5,1.2-4.8,1.3-7.2c0.1-2.3-0.2-4.7-0.8-7c-0.6-2.4-1.6-4.6-2.4-6.9
		c1.2-0.2,2.4-0.3,3.6-0.4c2.7-0.2,5.3-0.2,8,0.4c1,0.2,1.9,0.5,2.8,0.9c1.6,0.7,2.9,1.7,4,3.3c0.5,0.7,0.4,1.1-0.2,1.8
		c-0.2,0.3-0.7,0.4-0.8,0c-0.4-0.8-0.9-1.4-1.8-1.6c-0.4-0.1-0.8-0.2-1.1-0.1c-0.9,0.1-1.6,0.7-1.9,1.6c-0.6,1.8,0.3,3.6,1.9,4.3
		c0.6,0.3,1.3,0.5,2.1,0.4c1.1-0.1,2.1-0.6,3.1-1.2C216,83.1,215.4,84.7,213.9,85.9z"/>
</g>
<linearGradient id="SVGID_14_" gradientUnits="userSpaceOnUse" x1="18.2054" y1="137.3014" x2="222.8381" y2="137.3014">
	<stop  offset="0" style="stop-color:#FFF33B"/>
	<stop  offset="0.4264" style="stop-color:#FDC70C"/>
	<stop  offset="1" style="stop-color:#FFE730"/>
</linearGradient>
<path class="st13" d="M222.5,78.3c-0.2-1.1-0.5-2.2-1-3.3c-1-2.6-2.7-4.9-4.9-6.9c-0.7-0.7-0.7-0.8-0.2-1.4c1.5-1.6,2.8-3.3,3.5-5.4
	c1.6-4.2,1.4-8.4-1.4-12.2c-1.9-2.6-4.5-4.1-7.8-4.2c-0.4,0-0.8,0.1-1.3-0.2c0.3-0.7,0.6-1.5,0.9-2.2c0.5-1.2,0.6-2.4,0.3-3.7
	c-0.5-2.3-2.6-3.3-4.7-2.3c-1.2,0.6-2,1.4-2.6,2.5c-0.2,0.4-0.4,0.8-0.6,1.1c-0.2,0.3-0.2,0.8-0.7,0.9c-0.5-0.1-0.6-0.4-0.8-0.7
	c-2.5-2.9-5.7-4-9.3-3.6c-2.4,0.3-4.6,1.3-6.4,2.8c-2.3,2-3.7,4.5-4.5,7.4c-0.3,1-0.5,2.1-0.7,3.2c-0.9-0.1-1.7-0.3-2.6-0.3
	c-4-0.4-7.6,0.5-10.9,2.4c-3.2,1.8-4.9,4.6-6.2,7.9c-0.1,0.2-0.1,0.3-0.2,0.5c-1.2,3.5-1.2,6.9,0.9,10.1c0.1,0.2,0.1,0.3-0.2,0.4
	c-0.3,0-0.9,0-1.4,0.1c-2.5,0.2-4.6,1.2-6.2,3c-3.3,3.8-4.2,8-2,12.8c1,2.1,2.2,4,3.7,5.7c1.6,1.9,3.4,3.8,5,5.7
	c0.9,1,1.8,2.1,2.6,3.2c1.3,2,1.9,4.1,1.5,6.5c-0.2,1.2-0.8,2.2-1.9,2.8c-1,0.6-2.4,0.3-3.3-0.6c-0.3-0.3-0.5-0.7-0.5-1.1
	c0-0.5-0.1-1.2,0.5-1.5c0.1,0.1,0.3,0.2,0.4,0.3c1.5,1,2.5,0.8,3.2-0.7c0.3-0.7,0.5-1.4,0.4-2.2c-0.2-1.9-1.4-3.2-3.1-4
	c-1.1-0.5-2.2-0.5-3.2,0.1c-0.6,0.4-1.2,0.8-1.8,1.2c-0.7-0.3-0.7-1-1.1-1.4c-0.9-0.7-1.7-0.7-2.5,0c-0.9,0.8-1.4,1.9-1.6,3
	c-0.6,2.9-0.1,5.7,1.4,8.3c0.3,0.5,0.7,0.9,1,1.5c0.2,0.3,0.2,0.6-0.2,0.8c-0.9,0.3-1.3,1-1.4,1.9c-0.1,1,0.5,1.8,1.3,2.3
	c0.4,0.2,0.7,0.5,0.9,0.9c0.7,2.3,2.2,4,3.9,5.5c0.4,0.3,0.6,0.7,0.3,1.1c-1,1.4-0.4,2.5,0.7,3.6c0.3,0.3,0.8,0.4,0.7,1.1
	c-3,6.2-6.6,12.2-11.1,17.6c-2.9,3.4-5.3,7.3-7,11.4c-0.8,1.9-1.4,3.9-1.6,6c-0.2,1.7-0.1,3.3,0.6,4.9c0.2,0.4,0.5,0.7,0.2,1.2
	c-0.4,0.1-0.8,0.1-1.2,0.3c-1.2,0.4-2.2,1-3.1,1.7L88.8,72.5C82.6,59.4,69.5,51,55.3,51H18.2v1.8c20.4,2.5,29.5,17.5,37.1,33.5
	l70.9,152l6.9-15.7c0.3-0.1,0.5-0.6,0.9-1.4c1.2-2.5,2.4-4.9,3.6-7.4c0.6-1.3,0.7-1.3,2.1-0.6c0.2,0.1,0.5,0.2,0.7,0.3
	c1.1,0.6,1.2,0.7,0.7,1.7c-1.1,2.4-2.3,4.8-3.5,7.2c-0.2,0.5-0.5,1.1-0.7,1.6c-0.1,0.3,0,0.7,0.3,0.9c0.4,0.2,0.8,0.4,1.1,0.6
	c7,3.4,14,6.8,21,10.2c0.4,0.2,0.8,0.4,1.2,0.5c0.5,0.2,0.9,0.1,1.1-0.3c0.8-1.6,1.6-3.3,2.4-4.9c0.3-0.5,0.2-1-0.4-1.3
	c-0.6-0.3-1.2-0.6-1.8-0.9c-0.4-0.2-0.8-0.4-1.2-0.6c-1-0.5-2-1-3-1.5c-0.5-0.3-0.8-0.6-0.5-1.2c1.3-2.8,0.9-2.6,3.6-1.4
	c0.3,0.1,0.6,0.3,0.9,0.4c0.2,0.1,0.3,0.1,0.5,0.2c1.3,0.6,2.4,1.5,3.9,1.6c1-1.3,1.5-2.8,2.2-4.2c0.5-0.9,0.4-1.1-0.6-1.6
	c-3.1-1.5-6.1-3-9.2-4.5c-1.2-0.6-2.3-1.5-3.7-1.5c-0.9,0.9-1.2,2.2-1.8,3.2c-0.7,1.3-1.3,2.7-2,4c-0.3,0.7-0.7,0.8-1.4,0.4
	c-0.6-0.2-1.1-0.5-1.6-0.8c-0.4-0.2-0.6-0.6-0.4-1c0.2-0.5,0.5-1.1,0.7-1.6c0.7-1.5,1.5-3,2.2-4.5l0.4-0.8l2.5-5.1l2.3-4.8
	c0.4-0.7,0.7-1.5,1.1-2.2c0.3-0.6,0.7-0.7,1.2-0.4c0.1,0,0.1,0.1,0.2,0.1c0.5,0.2,0.9,0.4,1.4,0.7c0.8,0.4,0.9,0.6,0.5,1.4
	c-1.1,2.3-2.2,4.5-3.2,6.8c-0.4,0.8-0.3,1,0.5,1.4c4.1,2,8.1,4,12.2,5.9c0.5,0.3,0.9,0.3,1.2-0.3c0.6-1.4,1.3-2.7,1.9-4.1
	c0.2-0.4,0.1-0.8-0.3-1c-1.5-0.8-3.1-1.5-4.6-2.3c-2.6-1.3-2.5-1-1.2-3.6c0.3-0.7,0.6-0.8,1.4-0.4c1.7,0.8,3.4,1.6,5.1,2.4
	c0.4,0.2,0.8,0.4,1.2,0.5c0.2,0,0.6-0.1,0.6-0.2c0.9-1.8,1.8-3.6,2.6-5.4c0.1-0.2,0-0.5-0.2-0.6c-0.3-0.2-0.6-0.4-0.9-0.5
	c-7.4-3.6-14.8-7.1-22.1-10.7c-0.4-0.2-0.7-0.5-1.4-0.1c-0.1,0.3-0.4,0.8-0.6,1.3c-1,2.1-2,4.2-3.1,6.3c-1.2,2.4-1.5,2.5-3.9,0.9
	c-0.3-0.2-0.5-0.5-0.3-0.8c0.2-0.5,0.5-1.1,0.7-1.6c1.1-2.4,2.3-4.8,3.5-7.2c0.5-1,0.4-1.1-0.5-1.6c-1.1-0.6-2.3-1.1-3.4-1.7
	c-0.7-0.4-1.5-0.8-2.2-1.1c4.1-3.8,4.6-6,2.6-10.8c3.3-1,5-2.2,7-4.8c2.8-3.8,4.6-8.1,5.8-12.6c0.8-2.8,1.4-5.7,2.1-8.5
	c1.2-4.6,3.2-8.9,5.1-13.3c0.5-1.1,0.5-1.1,1.9-1c1.3,0.1,2.5,0.1,2.9-1.3c0.3-0.9,0.8-0.9,1.6-0.7c1.6,0.3,3.2,0.4,4.8,0.1
	c1.2-0.3,2.3-0.7,3.7-0.3c1.3,0.4,2.3-0.6,2.4-1.9c0-0.3,0-0.5-0.1-0.8c-0.2-0.5,0-0.8,0.5-0.9c0.6-0.1,1.2,0,1.8-0.1
	c3.2-0.5,5.7-2,7.6-4.5c0.6-0.8,1-1.7,1-2.8c0-0.9-0.4-1.5-1.4-1.8c-0.7-0.2-1.3,0.2-2-0.1c0-0.8-0.1-1.5-0.2-2.3
	c-0.1-0.8-0.4-1.5-1.1-1.9c-1.3-0.9-2.7-1.4-4.3-1.1c-1.6,0.3-2.7,1.3-3.2,2.8c-0.4,1.1,0.1,1.9,1.2,2.4c0.3,0.1,1-0.2,0.9,0.5
	c0,0.3-0.3,0.6-0.5,0.8c-1.4,1.1-3.6,0.2-4-1.6c-0.3-1.2,0.1-2.3,0.9-3.2c0.8-1,1.9-1.6,3.1-2.1c1.7-0.7,3.6-0.9,5.5-0.8
	c2.6,0.1,5.2,0.3,7.9,0.5c1.2,0.1,2.3,0.1,3.5,0c1.3-0.1,2.6-0.2,3.9-0.4c2.9-0.5,5.2-1.7,6.9-3.6c1.1-1.2,1.9-2.7,2.4-4.5
	c0.9-2.9,0.7-5.8-1.1-8.4c-0.3-0.4-0.6-0.8-0.9-1.3c3.1-0.6,4.1-0.9,5.6-2.2c2.1-1.8,3.8-3.8,4.8-6.1
	C222.8,84.5,223.2,81.6,222.5,78.3z M213.6,51.6c0.7,1.4,0.8,2.9,0.4,4.8c-0.6-0.8-1.1-1.5-1.6-2c-0.5-0.6-1.1-0.9-1.6-1.1
	c-0.9-0.3-1.9,0-2.8,0.9c-0.4,0.4-0.7,0.9-1.2,1.4c-0.9-0.9-0.9-2-0.7-3c0.1-0.3,0.2-0.7,0.3-1c0.3-0.8,0.8-1.5,1.5-1.9
	C209.9,48.6,212.5,49.4,213.6,51.6z M206.2,39.8c0.4-0.3,0.9-0.4,1.4-0.1c0.4,0.2,0.5,0.6,0.6,1.1c0.1,0.6-0.2,1.1-0.5,1.9
	c-0.2,0.3-0.6,0.8-1,1.1c-0.3,0.3-0.8,0.4-1.2,0.2c-0.5-0.2-0.8-0.6-0.8-1.2C204.7,41.6,205.2,40.6,206.2,39.8z M200,64.1
	c0.6-1.6,1.7-3.7,3.1-6c1.8,2.1,4,3,6.7,3.1c-1.9,2.5-4.9,3.9-9.7,4.8c-0.2,0-0.4,0.1-0.6,0.1C199.5,65.6,199.7,64.9,200,64.1z
	 M193.7,42.5c2.2-0.8,4.1-0.1,5.2,1.9c0.9,1.5,0.4,3.6-1.2,4.9c-0.6,0.5-1.2,0.8-2.1,0.8c-0.3-0.7,0.1-1.3,0.2-1.9
	c0.3-1.4-1-3.3-2.7-3.3c-0.8,0-1.6,0-2.7,0C191.4,43.7,192.4,42.9,193.7,42.5z M189.1,51.5c3.7,2.8,2.6,2.3,6.5,3.3
	c-0.4,1.7-1.9,5-3.6,7.7c-1.3-1.7-2.5-4.7-3-7.3C188.8,53.9,188.6,52.7,189.1,51.5z M187,91.8c3.4-1.9,5.9-4.6,6.9-8.4
	c-0.1-1.7-0.2-3.4-0.8-5c-0.1-0.1-0.2-0.2-0.3-0.4c-1.1-2.2-2.7-3.5-5.3-3.3c-1.8,0.3-3.5,1-5.1,1.9c-3.3,3.2-3.9,7.1-3.3,11.5
	c0.3,2.1,0.3,2.2-1.6,2.7c-1.3,0.3-2.6,0.6-4,0.8c-0.6,0.1-0.9-0.2-0.9-0.9c0.3-4.4,1.7-8.2,5-11.3c1.4-1.3,2.9-2.5,4.6-3.4
	c1.5-1,3.1-1.8,4.9-2.2c5.4-1.9,4.1-2.2,6.1,2.7c0.2,0.5,0.3,1.1,0.4,1.7c0.6,1.6,1,3.2,1,4.9c0.9,6.1-1.1,11.1-5.5,15.3
	c-0.7,0.7-1.1,0.7-1.5-0.1c-0.6-1.1-1.2-2.2-1.7-3.4C185.1,92.9,185.1,92.9,187,91.8z M184.4,87.5c-0.6-1.4-0.6-2.7-0.5-4
	c0.1-1.2,0.6-2.3,1.4-3.1c0.8-0.7,1.7-0.8,2.6-0.5c0.9,0.3,1.6,1.5,1.5,2.4c-0.2,1.2-0.7,2.2-1.6,3.1
	C186.8,86.3,185.7,87,184.4,87.5z M161.7,88.1c-0.2-0.2-0.4-0.6-0.4-0.9c-0.5-2-0.1-3.8,1.5-5.2c1.1-1,2.4-0.7,3,0.7
	c0.2,0.5,0.3,1,0.4,1.4c0.2,0.8,0.6,1.7,1.3,2.1c0.9,0.5,0.9,1.1,0.8,1.8c-0.2,1-0.3,1.9-0.5,3C165.3,90.9,163.5,89.6,161.7,88.1z
	 M166,118c-0.1,0.5-0.3,0.9-0.6,1.4c-0.3,0.5-0.7,0.6-1.3,0.4c-0.8-0.4-1.5-0.7-2.7-1.3c1.9-0.5,3.3-1,4.6-1.8
	C166.5,117.2,166.1,117.6,166,118z M168.3,99.4c-0.1,0-0.1-0.1-0.2-0.1c-0.2-0.3-0.4-0.7-0.6-1c-0.7-1.1-1.6-2.2-2.1-3.5
	c2.5,0.6,2.5,0.6,2.8,3.2c0.3,0.3,0.3,0.7,0.3,1.1C168.6,99.2,168.5,99.4,168.3,99.4z M170.6,77.5c-0.4-0.6-0.7-1.3-1.1-2
	c1.3-0.2,2.6-0.4,3.7-1c2.1-1.3,3.2-3.3,3.7-5.7c0.3-1.5-0.2-2.8-1.6-3.7c-1.4-0.9-2.7-0.9-4-0.1c-0.6,0.3-1,0.9-1.5,1.3
	c-0.6,0.6-0.8,0.6-1.4,0.1c-0.8-0.8-1.2-1.7-1.2-2.7c-0.1-2.2,0.9-3.9,2.6-5.5c0.2,0.9,0.3,1.5,0.5,2.2c0.3,0.8,0.7,1.5,1.4,2.1
	c1.5,1.2,3.4,1.2,4.8-0.1c1.6-1.4,1-3.6-1-4.3c-0.7-0.2-1.4,0.2-2-0.1c0.2-1.7,0.3-1.8,1.6-1.9c2.8,0,5.1,1.1,7.2,2.9
	c2.5,2,4.8,5,7,9c-3.7,1-7.1,2.1-10.2,4.1c-3,1.9-5.4,4.4-7.4,7.3C171,79,171,78.2,170.6,77.5z M172.9,124c-0.3-0.1-0.6-0.3-0.9-0.4
	c-1.3-0.6-1.5-0.9-0.7-2.3c0.3-0.6,0.8-1,1.4-1.7c0.3,1.8,0.6,3.3,1.5,4.6C173.5,124.6,173.2,124.1,172.9,124z M175.6,105.8
	c-0.6-1-0.7-2.1-1-3.1c-0.6-2-1-4.1-1.5-6.1c-0.1-0.7,0-0.9,0.8-0.9c2.1-0.2,4.1-0.7,6.1-1.4c1-0.4,1.4-0.2,1.7,0.8
	c0.7,2.2,1.7,4.4,3.1,6.4C181.8,103.3,178.6,104.3,175.6,105.8z M185.9,107.3c-0.2,0.2-0.4,0.2-0.7,0.2c-0.1,0-0.2-0.1-0.2-0.1
	c0-0.1,0-0.3,0-0.4c0.3-0.3,0.6-0.5,1.1-0.5c0.1-0.1,0.1-0.1,0.2-0.2c2.3-1.3,1.6-1.6,4.1,0.4C188.9,107.2,187.4,107.2,185.9,107.3z
	 M200,104.7c-0.5,0.4-1.1,0.8-1.7,0.9c-0.2,0-0.3,0.1-0.5,0c-2.3-0.5-4.4-1.1-6.2-3c0.6-0.6,1.2-1,1.6-1.6c0.7-1.1,1.6-1.5,2.9-1
	c0.8,0.2,1.5-0.1,2.2-0.4c0.5-0.2,1.1-0.5,1.6-0.6c1-0.2,1.9,0.5,1.9,1.5C202.1,102,201.3,103.7,200,104.7z M214,85.9
	c-1,0.8-2,1.2-3.2,1.1c-0.3,0-0.7-0.1-1-0.2c0.1-0.9,0.3-1.7,0.2-2.5c0-1.6-0.8-2.7-2.3-3.4c-1.7-0.8-3.1-0.4-4.3,1
	c-2.3,2.6-2.6,5.9-1,9.1c0.1,0.2,0.2,0.5,0.4,0.8c-1,0.2-1.9,0.3-2.8,0.5c-0.5,0.1-1.1,0.2-1.6,0.3c0.6-2.5,1.2-4.8,1.3-7.2
	c0.1-2.3-0.2-4.7-0.8-7c-0.6-2.4-1.6-4.6-2.4-6.9c1.2-0.2,2.4-0.3,3.6-0.4c2.7-0.2,5.3-0.2,8,0.4c1,0.2,1.9,0.5,2.8,0.9
	c1.6,0.7,2.9,1.7,4,3.3c0.5,0.7,0.4,1.1-0.2,1.8c-0.2,0.3-0.7,0.4-0.8,0c-0.4-0.8-0.9-1.4-1.8-1.6c-0.4-0.1-0.8-0.2-1.1-0.1
	c-0.9,0.1-1.6,0.7-1.9,1.6c-0.6,1.8,0.3,3.6,1.9,4.3c0.6,0.3,1.3,0.5,2.1,0.4c1.1-0.1,2.1-0.6,3.1-1.2
	C216.1,83.1,215.4,84.7,214,85.9z"/>
</svg>
